<?xml version="1.0" standalone="no"?>
<svg viewBox="0 0 200 200" xmlns="http://www.w3.org/2000/svg">
  <path fill="#E1EEEC" d="M42.4,-67C53.2,-59.1,58.9,-44.3,66.8,-29.7C74.8,-15.1,85,-0.7,83.4,12.2C81.8,25,68.4,36.3,56.3,47C44.2,57.7,33.5,67.8,21.5,69.6C9.5,71.3,-3.8,64.8,-13.5,57C-23.3,49.1,-29.5,40,-42.5,32.6C-55.4,25.2,-75.2,19.4,-80.6,9C-86.1,-1.3,-77.4,-16.3,-65.7,-25.2C-54.1,-34,-39.7,-36.6,-28.3,-44.2C-16.8,-51.9,-8.4,-64.5,3.7,-70.2C15.8,-76,31.7,-75,42.4,-67Z" transform="translate(100 100)" />
</svg>
