<?xml version="1.0" standalone="no"?>
<svg viewBox="0 0 200 200" xmlns="http://www.w3.org/2000/svg">
  <path fill="#E1EEEC" d="M37.8,-54.7C47.3,-52.8,52,-39.4,58.4,-26.4C64.8,-13.4,72.8,-0.9,74.4,13C76,26.9,71.2,42.2,59.7,47C48.2,51.9,30.1,46.4,16.4,45.9C2.7,45.4,-6.7,50,-20.3,53.3C-34,56.6,-51.9,58.5,-58.9,50.8C-65.9,43.1,-62,25.7,-58.9,11.8C-55.7,-2.2,-53.4,-12.8,-46.7,-18.9C-40.1,-25,-29.1,-26.6,-20.6,-29C-12.1,-31.4,-6.1,-34.6,4.1,-40.9C14.2,-47.2,28.4,-56.7,37.8,-54.7Z" transform="translate(100 100)" />
</svg>
