<?xml version="1.0" standalone="no"?>
<svg viewBox="0 0 200 200" xmlns="http://www.w3.org/2000/svg">
  <path fill="#1C3A27" d="M33.9,-46.4C47,-44.3,62.8,-40.1,73.7,-29.7C84.6,-19.3,90.6,-2.7,86.7,11.2C82.8,25.2,69,36.5,55.4,42.8C41.9,49.1,28.5,50.4,15.7,54.8C2.9,59.3,-9.5,66.7,-23.2,67.8C-36.9,68.9,-52,63.5,-63.6,53.4C-75.2,43.2,-83.3,28.2,-85.4,12.4C-87.4,-3.3,-83.4,-19.8,-72.5,-28.7C-61.6,-37.7,-43.8,-39,-30.6,-41C-17.3,-43,-8.7,-45.7,0.9,-47C10.4,-48.4,20.8,-48.4,33.9,-46.4Z" transform="translate(100 100)" />
</svg>
